<mxfile host="Electron" modified="2024-06-30T18:43:31.589Z" agent="Mozilla/5.0 (Windows NT 10.0; Win64; x64) AppleWebKit/537.36 (KHTML, like Gecko) draw.io/24.5.3 Chrome/124.0.6367.207 Electron/30.0.6 Safari/537.36" etag="HW5pib2Q-GGogO_zVbcu" version="24.5.3" type="device">
  <diagram name="Página-1" id="NbaJHhc9nZFjif_TWirl">
    <mxGraphModel dx="1050" dy="629" grid="1" gridSize="10" guides="1" tooltips="1" connect="1" arrows="1" fold="1" page="1" pageScale="1" pageWidth="827" pageHeight="1169" math="0" shadow="0">
      <root>
        <mxCell id="0" />
        <mxCell id="1" parent="0" />
        <mxCell id="O9w5FpXmYPV8ecCkfaFw-8" style="edgeStyle=orthogonalEdgeStyle;rounded=0;orthogonalLoop=1;jettySize=auto;html=1;exitX=1;exitY=0.5;exitDx=0;exitDy=0;entryX=0;entryY=0.5;entryDx=0;entryDy=0;" edge="1" parent="1" source="O9w5FpXmYPV8ecCkfaFw-1" target="O9w5FpXmYPV8ecCkfaFw-2">
          <mxGeometry relative="1" as="geometry" />
        </mxCell>
        <mxCell id="O9w5FpXmYPV8ecCkfaFw-1" value="Chegada do ticket" style="ellipse;whiteSpace=wrap;html=1;aspect=fixed;" vertex="1" parent="1">
          <mxGeometry x="130" y="170" width="80" height="80" as="geometry" />
        </mxCell>
        <mxCell id="O9w5FpXmYPV8ecCkfaFw-9" style="edgeStyle=orthogonalEdgeStyle;rounded=0;orthogonalLoop=1;jettySize=auto;html=1;exitX=1;exitY=0.5;exitDx=0;exitDy=0;entryX=0;entryY=0.5;entryDx=0;entryDy=0;" edge="1" parent="1" source="O9w5FpXmYPV8ecCkfaFw-2" target="O9w5FpXmYPV8ecCkfaFw-3">
          <mxGeometry relative="1" as="geometry" />
        </mxCell>
        <mxCell id="O9w5FpXmYPV8ecCkfaFw-2" value="Início da Análise" style="ellipse;whiteSpace=wrap;html=1;aspect=fixed;" vertex="1" parent="1">
          <mxGeometry x="260" y="170" width="80" height="80" as="geometry" />
        </mxCell>
        <mxCell id="O9w5FpXmYPV8ecCkfaFw-10" style="edgeStyle=orthogonalEdgeStyle;rounded=0;orthogonalLoop=1;jettySize=auto;html=1;exitX=1;exitY=0.5;exitDx=0;exitDy=0;entryX=0;entryY=0.5;entryDx=0;entryDy=0;" edge="1" parent="1" source="O9w5FpXmYPV8ecCkfaFw-3" target="O9w5FpXmYPV8ecCkfaFw-4">
          <mxGeometry relative="1" as="geometry" />
        </mxCell>
        <mxCell id="O9w5FpXmYPV8ecCkfaFw-12" style="edgeStyle=orthogonalEdgeStyle;rounded=0;orthogonalLoop=1;jettySize=auto;html=1;exitX=0.5;exitY=1;exitDx=0;exitDy=0;entryX=0;entryY=0.5;entryDx=0;entryDy=0;" edge="1" parent="1" source="O9w5FpXmYPV8ecCkfaFw-3" target="O9w5FpXmYPV8ecCkfaFw-6">
          <mxGeometry relative="1" as="geometry" />
        </mxCell>
        <mxCell id="O9w5FpXmYPV8ecCkfaFw-16" style="edgeStyle=orthogonalEdgeStyle;rounded=0;orthogonalLoop=1;jettySize=auto;html=1;exitX=0;exitY=0;exitDx=0;exitDy=0;entryX=0.5;entryY=0;entryDx=0;entryDy=0;" edge="1" parent="1" source="O9w5FpXmYPV8ecCkfaFw-3" target="O9w5FpXmYPV8ecCkfaFw-2">
          <mxGeometry relative="1" as="geometry">
            <Array as="points">
              <mxPoint x="412" y="150" />
              <mxPoint x="300" y="150" />
            </Array>
          </mxGeometry>
        </mxCell>
        <mxCell id="O9w5FpXmYPV8ecCkfaFw-3" value="Fim da Análise" style="ellipse;whiteSpace=wrap;html=1;aspect=fixed;" vertex="1" parent="1">
          <mxGeometry x="400" y="170" width="80" height="80" as="geometry" />
        </mxCell>
        <mxCell id="O9w5FpXmYPV8ecCkfaFw-11" style="edgeStyle=orthogonalEdgeStyle;rounded=0;orthogonalLoop=1;jettySize=auto;html=1;exitX=1;exitY=0.5;exitDx=0;exitDy=0;entryX=0;entryY=0.5;entryDx=0;entryDy=0;" edge="1" parent="1" source="O9w5FpXmYPV8ecCkfaFw-4" target="O9w5FpXmYPV8ecCkfaFw-5">
          <mxGeometry relative="1" as="geometry" />
        </mxCell>
        <mxCell id="O9w5FpXmYPV8ecCkfaFw-4" value="Início do Procedimento técnico" style="ellipse;whiteSpace=wrap;html=1;aspect=fixed;" vertex="1" parent="1">
          <mxGeometry x="520" y="170" width="80" height="80" as="geometry" />
        </mxCell>
        <mxCell id="O9w5FpXmYPV8ecCkfaFw-14" style="edgeStyle=orthogonalEdgeStyle;rounded=0;orthogonalLoop=1;jettySize=auto;html=1;exitX=1;exitY=0.5;exitDx=0;exitDy=0;entryX=0.5;entryY=0;entryDx=0;entryDy=0;" edge="1" parent="1" source="O9w5FpXmYPV8ecCkfaFw-5" target="O9w5FpXmYPV8ecCkfaFw-3">
          <mxGeometry relative="1" as="geometry">
            <Array as="points">
              <mxPoint x="730" y="210" />
              <mxPoint x="730" y="90" />
              <mxPoint x="440" y="90" />
            </Array>
          </mxGeometry>
        </mxCell>
        <mxCell id="O9w5FpXmYPV8ecCkfaFw-17" style="edgeStyle=orthogonalEdgeStyle;rounded=0;orthogonalLoop=1;jettySize=auto;html=1;exitX=0.5;exitY=0;exitDx=0;exitDy=0;entryX=0.5;entryY=0;entryDx=0;entryDy=0;" edge="1" parent="1" source="O9w5FpXmYPV8ecCkfaFw-5" target="O9w5FpXmYPV8ecCkfaFw-4">
          <mxGeometry relative="1" as="geometry" />
        </mxCell>
        <mxCell id="O9w5FpXmYPV8ecCkfaFw-5" value="Fim do Procedimento técnico" style="ellipse;whiteSpace=wrap;html=1;aspect=fixed;" vertex="1" parent="1">
          <mxGeometry x="630" y="170" width="80" height="80" as="geometry" />
        </mxCell>
        <mxCell id="O9w5FpXmYPV8ecCkfaFw-13" style="edgeStyle=orthogonalEdgeStyle;rounded=0;orthogonalLoop=1;jettySize=auto;html=1;exitX=1;exitY=0.5;exitDx=0;exitDy=0;" edge="1" parent="1" source="O9w5FpXmYPV8ecCkfaFw-6" target="O9w5FpXmYPV8ecCkfaFw-7">
          <mxGeometry relative="1" as="geometry" />
        </mxCell>
        <mxCell id="O9w5FpXmYPV8ecCkfaFw-6" value="Início da validação" style="ellipse;whiteSpace=wrap;html=1;aspect=fixed;" vertex="1" parent="1">
          <mxGeometry x="520" y="280" width="80" height="80" as="geometry" />
        </mxCell>
        <mxCell id="O9w5FpXmYPV8ecCkfaFw-7" value="Fim da validação" style="ellipse;whiteSpace=wrap;html=1;aspect=fixed;" vertex="1" parent="1">
          <mxGeometry x="630" y="280" width="80" height="80" as="geometry" />
        </mxCell>
        <mxCell id="O9w5FpXmYPV8ecCkfaFw-15" style="edgeStyle=orthogonalEdgeStyle;rounded=0;orthogonalLoop=1;jettySize=auto;html=1;exitX=1;exitY=0;exitDx=0;exitDy=0;entryX=0.5;entryY=0;entryDx=0;entryDy=0;" edge="1" parent="1" source="O9w5FpXmYPV8ecCkfaFw-1" target="O9w5FpXmYPV8ecCkfaFw-1">
          <mxGeometry relative="1" as="geometry">
            <Array as="points">
              <mxPoint x="198" y="150" />
              <mxPoint x="170" y="150" />
            </Array>
          </mxGeometry>
        </mxCell>
      </root>
    </mxGraphModel>
  </diagram>
</mxfile>
